<svg width="253" height="68" viewBox="0 0 253 68" fill="none" xmlns="http://www.w3.org/2000/svg">
<path d="M1 67V1H15V28.5L25 15.5H40.5L31.5 27.5L53 67H37.5L22.5 38L15 48.5V67H1Z" fill="black"/>
<path d="M70.5 15.5V67H84V43.5H92.5L105.5 67H121L106.5 40.5C118.5 35.3 118.833 21.6667 117.5 15.5H101.5C108.5 26.5 96.5 31.5 96 31.5H84V15.5H70.5Z" fill="black"/>
<path d="M1 67V1H15V28.5L25 15.5H40.5L31.5 27.5L53 67H37.5L22.5 38L15 48.5V67H1Z" stroke="black"/>
<path d="M70.5 15.5V67H84V43.5H92.5L105.5 67H121L106.5 40.5C118.5 35.3 118.833 21.6667 117.5 15.5H101.5C108.5 26.5 96.5 31.5 96 31.5H84V15.5H70.5Z" stroke="black"/>
<path d="M153.5 44V67H167V44L181 15.5H168L160 33L152.5 15.5H138.5L153.5 44Z" fill="black" stroke="black"/>
<path fill-rule="evenodd" clip-rule="evenodd" d="M251 15.5V18.5C251 23.5 243 32.5 239 32.5C245 32.5 252.5 37.5 252.5 42V52C252.5 62.5 238.5 67.5 232 67.5H204.5V15.5H219.5V27.5H230.5C235 27.5 237.5 18 235.5 15.5H251ZM219 56V38H232.323C235 38 240 42.5 240 47C240 50.5 236.5 56 231.299 56H219Z" fill="black"/>
</svg>
